<?xml version="1.0" encoding="UTF-8" standalone="no"?>
<svg
   xmlns:dc="http://purl.org/dc/elements/1.1/"
   xmlns:cc="http://creativecommons.org/ns#"
   xmlns:rdf="http://www.w3.org/1999/02/22-rdf-syntax-ns#"
   xmlns:svg="http://www.w3.org/2000/svg"
   xmlns="http://www.w3.org/2000/svg"
   xmlns:sodipodi="http://sodipodi.sourceforge.net/DTD/sodipodi-0.dtd"
   xmlns:inkscape="http://www.inkscape.org/namespaces/inkscape"
   data-name="Layer 1"
   viewBox="0 0 82.495918 92.303947"
   x="0px"
   y="0px"
   version="1.1"
   id="svg82"
   sodipodi:docname="gamest-icon.svg"
   width="82.495918"
   height="92.303947"
   inkscape:version="1.0.1 (3bc2e813f5, 2020-09-07)">
  <metadata
     id="metadata88">
    <rdf:RDF>
      <cc:Work
         rdf:about="">
        <dc:format>image/svg+xml</dc:format>
        <dc:type
           rdf:resource="http://purl.org/dc/dcmitype/StillImage" />
        <dc:title>18</dc:title>
      </cc:Work>
    </rdf:RDF>
  </metadata>
  <defs
     id="defs86" />
  <sodipodi:namedview
     pagecolor="#ff8aff"
     bordercolor="#666666"
     borderopacity="1"
     objecttolerance="10"
     gridtolerance="10"
     guidetolerance="10"
     inkscape:pageopacity="0"
     inkscape:pageshadow="2"
     inkscape:window-width="1848"
     inkscape:window-height="1030"
     id="namedview84"
     showgrid="false"
     inkscape:zoom="6.76"
     inkscape:cx="41.3"
     inkscape:cy="58.702565"
     inkscape:window-x="72"
     inkscape:window-y="549"
     inkscape:window-maximized="1"
     inkscape:current-layer="svg82"
     fit-margin-top="0"
     fit-margin-left="0"
     fit-margin-right="0"
     fit-margin-bottom="0"
     inkscape:pagecheckerboard="true" />
  <title
     id="title68">18</title>
  <g
     data-name="Group"
     id="g76"
     transform="translate(-8.7,-3.7974351)"
     style="stroke:#4d4d4d">
    <path
       data-name="Compound Path"
       d="m 67.9,14.9 h -5.5 a 8,8 0 0 0 -6.8,-3.8 h -1.8 a 11.2,11.2 0 0 0 -21,0 H 31 a 8,8 0 0 0 -6.8,3.8 h -5.5 a 10,10 0 0 0 -10,10 v 57.7 a 10,10 0 0 0 10,10 h 38.2 a 22.3,22.3 0 1 0 21,-39.2 V 24.9 a 10,10 0 0 0 -10,-10 z m 0,4 a 6,6 0 0 1 6,6 V 52.1 A 22.3,22.3 0 0 0 69,51.5 H 68.6 V 24.2 a 2,2 0 0 0 -2,-2 h -3 V 18.9 Z M 43.3,7.8 a 7.3,7.3 0 0 1 6,3.3 h -12 a 7.3,7.3 0 0 1 6,-3.3 z M 27,19.1 a 4,4 0 0 1 4,-4 h 24.6 a 4,4 0 0 1 4,4 v 6.5 H 27 Z m 34.6,10.5 a 2,2 0 0 0 2,-2 v -1.4 h 1 V 52 A 22.2,22.2 0 0 0 57.7,54.6 2,2 0 0 0 55.9,52 H 30.7 a 2,2 0 0 0 0,4 h 25 a 22.5,22.5 0 0 0 -6.9,8.4 H 30.7 a 2,2 0 0 0 0,4 h 16.7 a 22.3,22.3 0 0 0 0,10.9 H 22 V 26.2 h 1 v 1.5 a 2,2 0 0 0 2,2 z m -48.9,53 V 24.9 a 6,6 0 0 1 6,-6 H 23 v 3.2 h -3 a 2,2 0 0 0 -2,2 v 57.2 a 2,2 0 0 0 2,2 h 28.8 a 22.4,22.4 0 0 0 3.5,5.3 H 18.7 a 6,6 0 0 1 -6,-6 z M 87.3,73.9 A 18.3,18.3 0 1 1 69,55.6 18.3,18.3 0 0 1 87.3,73.9 Z"
       id="path70"
       style="stroke:#4d4d4d" />
    <path
       data-name="Path"
       d="m 30.7,43.6 h 7.5 a 2,2 0 1 0 0,-4 h -7.5 a 2,2 0 0 0 0,4 z"
       id="path72"
       style="stroke:#4d4d4d" />
    <path
       data-name="Path"
       d="m 65.9,64.3 v 11.2 a 2,2 0 0 0 2,2 h 8.5 a 2,2 0 0 0 2,-2 2,2 0 0 0 -2,-2 h -6.5 v -9.2 a 2,2 0 0 0 -4,0 z"
       id="path74"
       style="stroke:#4d4d4d" />
  </g>
</svg>
